<svg xmlns="http://www.w3.org/2000/svg" version="1.1" xmlns:xlink="http://www.w3.org/1999/xlink" xmlns:svgjs="http://svgjs.com/svgjs" width="1440" height="560" preserveAspectRatio="none" viewBox="0 0 1440 560"><g mask="url(&quot;#SvgjsMask1038&quot;)" fill="none"><rect width="1440" height="560" x="0" y="0" fill="#0e2a47"></rect><path d="M59 560L619 0L1028.5 0L468.5 560z" fill="url(#SvgjsLinearGradient1039)"></path><path d="M359.8 560L919.8 0L1210.8 0L650.8 560z" fill="url(#SvgjsLinearGradient1039)"></path><path d="M687.6 560L1247.6 0L1625.6 0L1065.6 560z" fill="url(#SvgjsLinearGradient1039)"></path><path d="M1387 560L827 0L462.5 0L1022.5 560z" fill="url(#SvgjsLinearGradient1040)"></path><path d="M1072.2 560L512.2 0L312.70000000000005 0L872.7 560z" fill="url(#SvgjsLinearGradient1040)"></path><path d="M796.4 560L236.39999999999998 0L-47.10000000000002 0L512.9 560z" fill="url(#SvgjsLinearGradient1040)"></path><path d="M1023.5857352042162 560L1440 143.5857352042163L1440 560z" fill="url(#SvgjsLinearGradient1039)"></path><path d="M0 560L416.4142647957837 560L 0 143.5857352042163z" fill="url(#SvgjsLinearGradient1040)"></path></g><defs><mask id="SvgjsMask1038"><rect width="1440" height="560" fill="#ffffff"></rect></mask><linearGradient x1="0%" y1="100%" x2="100%" y2="0%" id="SvgjsLinearGradient1039"><stop stop-color="rgba(15, 70, 185, 0.2)" offset="0"></stop><stop stop-opacity="0" stop-color="rgba(15, 70, 185, 0.2)" offset="0.66"></stop></linearGradient><linearGradient x1="100%" y1="100%" x2="0%" y2="0%" id="SvgjsLinearGradient1040"><stop stop-color="rgba(15, 70, 185, 0.2)" offset="0"></stop><stop stop-opacity="0" stop-color="rgba(15, 70, 185, 0.2)" offset="0.66"></stop></linearGradient></defs></svg>